<?xml version="1.0" standalone="no"?>
<!DOCTYPE svg PUBLIC "-//W3C//DTD SVG 20010904//EN"
 "http://www.w3.org/TR/2001/REC-SVG-20010904/DTD/svg10.dtd">
<svg version="1.0" xmlns="http://www.w3.org/2000/svg"
 width="650.000000pt" height="650.000000pt" viewBox="0 0 650.000000 650.000000"
 preserveAspectRatio="xMidYMid meet">
<metadata>
Created by potrace 1.14, written by Peter Selinger 2001-2017
</metadata>
<g transform="translate(0.000000,650.000000) scale(0.100000,-0.100000)"
fill="#000000" stroke="none">
<path d="M1407 6288 c-8 -13 -22 -93 -33 -178 -21 -170 -26 -504 -11 -730 l9
-125 -47 -60 c-149 -189 -248 -398 -297 -628 -30 -144 -30 -370 0 -514 66
-310 213 -567 463 -808 165 -159 311 -261 535 -373 139 -69 317 -138 462 -177
l102 -28 0 -519 0 -518 -522 -2 -522 -3 843 -725 c464 -399 851 -725 861 -725
10 0 397 326 861 725 l843 725 -522 3 -522 2 0 518 0 519 103 28 c144 39 322
108 461 177 224 112 370 214 535 373 250 241 397 498 463 808 30 144 30 370 0
514 -51 239 -149 443 -311 646 l-63 79 12 160 c22 276 -9 794 -50 843 -17 20
-21 20 -162 -20 -214 -61 -376 -126 -608 -243 -176 -88 -232 -112 -255 -109
-16 3 -79 16 -140 31 -442 103 -931 96 -1375 -20 l-95 -25 -235 118 c-129 66
-293 140 -365 166 -129 47 -364 117 -391 117 -7 0 -20 -10 -27 -22z"/>
</g>
</svg>
